<?xml version="1.0" encoding="UTF-8"?>
<!--Generator: Apple Native CoreSVG 175.5-->
<!DOCTYPE svg
PUBLIC "-//W3C//DTD SVG 1.1//EN"
       "http://www.w3.org/Graphics/SVG/1.1/DTD/svg11.dtd">
<svg version="1.1" xmlns="http://www.w3.org/2000/svg" xmlns:xlink="http://www.w3.org/1999/xlink" width="3300" height="2200">
 <!--glyph: "uni1013DC.medium", point size: 100.0, font version: "18.0d12e2", template writer version: "101"-->
 <g id="Notes">
  <rect height="2200" id="artboard" style="fill:white;opacity:1" width="3300" x="0" y="0"/>
  <line style="fill:none;stroke:black;opacity:1;stroke-width:0.5;" x1="263" x2="3036" y1="292" y2="292"/>
  <text style="stroke:none;fill:black;font-family:sans-serif;font-size:13;font-weight:bold;" transform="matrix(1 0 0 1 263 322)">Weight/Scale Variations</text>
  <text style="stroke:none;fill:black;font-family:sans-serif;font-size:13;text-anchor:middle;" transform="matrix(1 0 0 1 559.711 322)">Ultralight</text>
  <text style="stroke:none;fill:black;font-family:sans-serif;font-size:13;text-anchor:middle;" transform="matrix(1 0 0 1 856.422 322)">Thin</text>
  <text style="stroke:none;fill:black;font-family:sans-serif;font-size:13;text-anchor:middle;" transform="matrix(1 0 0 1 1153.13 322)">Light</text>
  <text style="stroke:none;fill:black;font-family:sans-serif;font-size:13;text-anchor:middle;" transform="matrix(1 0 0 1 1449.84 322)">Regular</text>
  <text style="stroke:none;fill:black;font-family:sans-serif;font-size:13;text-anchor:middle;" transform="matrix(1 0 0 1 1746.56 322)">Medium</text>
  <text style="stroke:none;fill:black;font-family:sans-serif;font-size:13;text-anchor:middle;" transform="matrix(1 0 0 1 2043.27 322)">Semibold</text>
  <text style="stroke:none;fill:black;font-family:sans-serif;font-size:13;text-anchor:middle;" transform="matrix(1 0 0 1 2339.98 322)">Bold</text>
  <text style="stroke:none;fill:black;font-family:sans-serif;font-size:13;text-anchor:middle;" transform="matrix(1 0 0 1 2636.69 322)">Heavy</text>
  <text style="stroke:none;fill:black;font-family:sans-serif;font-size:13;text-anchor:middle;" transform="matrix(1 0 0 1 2933.4 322)">Black</text>
  <line style="fill:none;stroke:black;opacity:1;stroke-width:0.5;" x1="263" x2="3036" y1="1903" y2="1903"/>
  <g transform="matrix(1 0 0 1 263 1933)">
   <path d="M9.24805 0.830078C13.5547 0.830078 17.1387-2.74414 17.1387-7.05078C17.1387-11.3574 13.5449-14.9316 9.23828-14.9316C4.94141-14.9316 1.36719-11.3574 1.36719-7.05078C1.36719-2.74414 4.95117 0.830078 9.24805 0.830078ZM9.24805-0.654297C5.70312-0.654297 2.87109-3.49609 2.87109-7.05078C2.87109-10.6055 5.69336-13.4473 9.23828-13.4473C12.793-13.4473 15.6445-10.6055 15.6445-7.05078C15.6445-3.49609 12.8027-0.654297 9.24805-0.654297ZM5.6543-7.05078C5.6543-6.62109 5.95703-6.32812 6.40625-6.32812L8.50586-6.32812L8.50586-4.20898C8.50586-3.76953 8.79883-3.4668 9.22852-3.4668C9.67773-3.4668 9.9707-3.76953 9.9707-4.20898L9.9707-6.32812L12.0898-6.32812C12.5293-6.32812 12.832-6.62109 12.832-7.05078C12.832-7.49023 12.5293-7.79297 12.0898-7.79297L9.9707-7.79297L9.9707-9.90234C9.9707-10.3516 9.67773-10.6543 9.22852-10.6543C8.79883-10.6543 8.50586-10.3516 8.50586-9.90234L8.50586-7.79297L6.40625-7.79297C5.95703-7.79297 5.6543-7.49023 5.6543-7.05078Z"/>
  </g>
  <g transform="matrix(1 0 0 1 281.867 1933)">
   <path d="M11.709 2.91016C17.1582 2.91016 21.6699-1.61133 21.6699-7.05078C21.6699-12.5 17.1484-17.0117 11.6992-17.0117C6.25977-17.0117 1.74805-12.5 1.74805-7.05078C1.74805-1.61133 6.26953 2.91016 11.709 2.91016ZM11.709 1.25C7.09961 1.25 3.41797-2.44141 3.41797-7.05078C3.41797-11.6602 7.08984-15.3516 11.6992-15.3516C16.3086-15.3516 20.0098-11.6602 20.0098-7.05078C20.0098-2.44141 16.3184 1.25 11.709 1.25ZM7.17773-7.05078C7.17773-6.57227 7.50977-6.25 8.00781-6.25L10.8789-6.25L10.8789-3.36914C10.8789-2.88086 11.2109-2.53906 11.6895-2.53906C12.1777-2.53906 12.5195-2.87109 12.5195-3.36914L12.5195-6.25L15.4004-6.25C15.8887-6.25 16.2305-6.57227 16.2305-7.05078C16.2305-7.53906 15.8887-7.88086 15.4004-7.88086L12.5195-7.88086L12.5195-10.752C12.5195-11.25 12.1777-11.5918 11.6895-11.5918C11.2109-11.5918 10.8789-11.25 10.8789-10.752L10.8789-7.88086L8.00781-7.88086C7.50977-7.88086 7.17773-7.53906 7.17773-7.05078Z"/>
  </g>
  <g transform="matrix(1 0 0 1 305.646 1933)">
   <path d="M14.9707 5.66406C21.9336 5.66406 27.6953-0.0976562 27.6953-7.05078C27.6953-14.0137 21.9238-19.7754 14.9609-19.7754C8.00781-19.7754 2.25586-14.0137 2.25586-7.05078C2.25586-0.0976562 8.01758 5.66406 14.9707 5.66406ZM14.9707 3.84766C8.93555 3.84766 4.08203-1.01562 4.08203-7.05078C4.08203-13.0957 8.92578-17.9492 14.9609-17.9492C21.0059-17.9492 25.8691-13.0957 25.8691-7.05078C25.8691-1.01562 21.0156 3.84766 14.9707 3.84766ZM9.19922-7.05078C9.19922-6.5332 9.57031-6.17188 10.1172-6.17188L14.0625-6.17188L14.0625-2.2168C14.0625-1.67969 14.4336-1.29883 14.9512-1.29883C15.4883-1.29883 15.8594-1.66992 15.8594-2.2168L15.8594-6.17188L19.8145-6.17188C20.3516-6.17188 20.7324-6.5332 20.7324-7.05078C20.7324-7.59766 20.3613-7.96875 19.8145-7.96875L15.8594-7.96875L15.8594-11.9141C15.8594-12.4609 15.4883-12.8418 14.9512-12.8418C14.4336-12.8418 14.0625-12.4609 14.0625-11.9141L14.0625-7.96875L10.1172-7.96875C9.57031-7.96875 9.19922-7.59766 9.19922-7.05078Z"/>
  </g>
  <text style="stroke:none;fill:black;font-family:sans-serif;font-size:13;font-weight:bold;" transform="matrix(1 0 0 1 263 1953)">Design Variations</text>
  <text style="stroke:none;fill:black;font-family:sans-serif;font-size:13;" transform="matrix(1 0 0 1 263 1971)">Symbols are supported in up to nine weights and three scales.</text>
  <text style="stroke:none;fill:black;font-family:sans-serif;font-size:13;" transform="matrix(1 0 0 1 263 1989)">For optimal layout with text and other symbols, vertically align</text>
  <text style="stroke:none;fill:black;font-family:sans-serif;font-size:13;" transform="matrix(1 0 0 1 263 2007)">symbols with the adjacent text.</text>
  <line style="fill:none;stroke:#00AEEF;stroke-width:0.5;opacity:1.0;" x1="776" x2="776" y1="1919" y2="1933"/>
  <g transform="matrix(1 0 0 1 776 1933)">
   <path d="M3.31055 0.15625C3.82812 0.15625 4.08203-0.0390625 4.26758-0.585938L5.52734-4.0332L11.2891-4.0332L12.5488-0.585938C12.7344-0.0390625 12.9883 0.15625 13.4961 0.15625C14.0137 0.15625 14.3457-0.15625 14.3457-0.644531C14.3457-0.810547 14.3164-0.966797 14.2383-1.17188L9.6582-13.3691C9.43359-13.9648 9.0332-14.2676 8.4082-14.2676C7.80273-14.2676 7.39258-13.9746 7.17773-13.3789L2.59766-1.16211C2.51953-0.957031 2.49023-0.800781 2.49023-0.634766C2.49023-0.146484 2.80273 0.15625 3.31055 0.15625ZM6.00586-5.51758L8.37891-12.0898L8.42773-12.0898L10.8008-5.51758Z"/>
  </g>
  <line style="fill:none;stroke:#00AEEF;stroke-width:0.5;opacity:1.0;" x1="793.197" x2="793.197" y1="1919" y2="1933"/>
  <text style="stroke:none;fill:black;font-family:sans-serif;font-size:13;font-weight:bold;" transform="matrix(1 0 0 1 776 1953)">Margins</text>
  <text style="stroke:none;fill:black;font-family:sans-serif;font-size:13;" transform="matrix(1 0 0 1 776 1971)">Leading and trailing margins on the left and right side of each symbol</text>
  <text style="stroke:none;fill:black;font-family:sans-serif;font-size:13;" transform="matrix(1 0 0 1 776 1989)">can be adjusted by modifying the x-location of the margin guidelines.</text>
  <text style="stroke:none;fill:black;font-family:sans-serif;font-size:13;" transform="matrix(1 0 0 1 776 2007)">Modifications are automatically applied proportionally to all</text>
  <text style="stroke:none;fill:black;font-family:sans-serif;font-size:13;" transform="matrix(1 0 0 1 776 2025)">scales and weights.</text>
  <g transform="matrix(1 0 0 1 1289 1933)">
   <path d="M2.8418 1.86523L4.54102 3.57422C5.40039 4.44336 6.38672 4.38477 7.31445 3.35938L18.0078-8.42773L17.041-9.4043L6.42578 2.27539C6.07422 2.67578 5.74219 2.77344 5.27344 2.30469L4.10156 1.14258C3.63281 0.683594 3.74023 0.341797 4.14062-0.0195312L15.6152-10.8203L14.6387-11.7871L3.04688-0.898438C2.06055 0.0195312 1.98242 0.996094 2.8418 1.86523ZM9.25781-16.3281C8.83789-15.918 8.80859-15.3418 9.04297-14.9512C9.27734-14.5898 9.73633-14.3555 10.3809-14.5215C11.8457-14.8633 13.3691-14.9219 14.7949-13.9844L14.209-12.5293C13.8672-11.6992 14.043-11.1133 14.5801-10.5664L16.875-8.25195C17.3633-7.76367 17.7734-7.74414 18.3398-7.8418L19.4043-8.03711L20.0684-7.36328L20.0293-6.80664C19.9902-6.30859 20.1172-5.92773 20.6055-5.44922L21.3672-4.70703C21.8457-4.22852 22.4609-4.19922 22.9297-4.66797L25.8398-7.58789C26.3086-8.05664 26.2891-8.65234 25.8105-9.13086L25.0391-9.89258C24.5605-10.3711 24.1895-10.5273 23.7109-10.4883L23.1348-10.4395L22.4902-11.0742L22.7344-12.1973C22.8613-12.7637 22.7051-13.2031 22.1191-13.7891L19.9219-15.9766C16.582-19.2969 12.1484-19.2188 9.25781-16.3281ZM10.752-15.957C13.1836-17.7344 16.4746-17.4316 18.7012-15.2051L21.1328-12.793C21.3672-12.5586 21.4062-12.373 21.3379-12.0312L21.0156-10.5469L22.5195-9.0625L23.5059-9.12109C23.7598-9.13086 23.8379-9.11133 24.0332-8.91602L24.6094-8.33984L22.168-5.89844L21.5918-6.47461C21.3965-6.66992 21.3672-6.74805 21.377-7.01172L21.4453-7.98828L19.9512-9.47266L18.4277-9.21875C18.1055-9.15039 17.959-9.17969 17.7148-9.41406L15.7129-11.416C15.459-11.6504 15.4297-11.8164 15.5859-12.1875L16.4648-14.2773C14.9023-15.7324 12.8711-16.3574 10.8398-15.7617C10.6836-15.7227 10.625-15.8496 10.752-15.957Z"/>
  </g>
  <text style="stroke:none;fill:black;font-family:sans-serif;font-size:13;font-weight:bold;" transform="matrix(1 0 0 1 1289 1953)">Exporting</text>
  <text style="stroke:none;fill:black;font-family:sans-serif;font-size:13;" transform="matrix(1 0 0 1 1289 1971)">Symbols should be outlined when exporting to ensure the</text>
  <text style="stroke:none;fill:black;font-family:sans-serif;font-size:13;" transform="matrix(1 0 0 1 1289 1989)">design is preserved when submitting to Xcode.</text>
  <text id="template-version" style="stroke:none;fill:black;font-family:sans-serif;font-size:13;text-anchor:end;" transform="matrix(1 0 0 1 3036 1933)">Template v.2.0</text>
  <text style="stroke:none;fill:black;font-family:sans-serif;font-size:13;text-anchor:end;" transform="matrix(1 0 0 1 3036 1951)">Requires Xcode 12 or greater</text>
  <text id="descriptive-name" style="stroke:none;fill:black;font-family:sans-serif;font-size:13;text-anchor:end;" transform="matrix(1 0 0 1 3036 1969)">Generated from door.left.hand.open</text>
  <text style="stroke:none;fill:black;font-family:sans-serif;font-size:13;text-anchor:end;" transform="matrix(1 0 0 1 3036 1987)">Typeset at 100 points</text>
  <text style="stroke:none;fill:black;font-family:sans-serif;font-size:13;" transform="matrix(1 0 0 1 263 726)">Small</text>
  <text style="stroke:none;fill:black;font-family:sans-serif;font-size:13;" transform="matrix(1 0 0 1 263 1156)">Medium</text>
  <text style="stroke:none;fill:black;font-family:sans-serif;font-size:13;" transform="matrix(1 0 0 1 263 1586)">Large</text>
 </g>
 <g id="Guides">
  <g id="H-reference" style="fill:#27AAE1;stroke:none;" transform="matrix(1 0 0 1 339 696)">
   <path d="M0.993654 0L3.63775 0L29.3281-67.1323L30.0303-67.1323L30.0303-70.459L28.1226-70.459ZM11.6885-24.4799L46.9815-24.4799L46.2315-26.7285L12.4385-26.7285ZM55.1196 0L57.7637 0L30.6382-70.459L29.4326-70.459L29.4326-67.1323Z"/>
  </g>
  <line id="Baseline-S" style="fill:none;stroke:#27AAE1;opacity:1;stroke-width:0.5;" x1="263" x2="3036" y1="696" y2="696"/>
  <line id="Capline-S" style="fill:none;stroke:#27AAE1;opacity:1;stroke-width:0.5;" x1="263" x2="3036" y1="625.541" y2="625.541"/>
  <g id="H-reference" style="fill:#27AAE1;stroke:none;" transform="matrix(1 0 0 1 339 1126)">
   <path d="M0.993654 0L3.63775 0L29.3281-67.1323L30.0303-67.1323L30.0303-70.459L28.1226-70.459ZM11.6885-24.4799L46.9815-24.4799L46.2315-26.7285L12.4385-26.7285ZM55.1196 0L57.7637 0L30.6382-70.459L29.4326-70.459L29.4326-67.1323Z"/>
  </g>
  <line id="Baseline-M" style="fill:none;stroke:#27AAE1;opacity:1;stroke-width:0.5;" x1="263" x2="3036" y1="1126" y2="1126"/>
  <line id="Capline-M" style="fill:none;stroke:#27AAE1;opacity:1;stroke-width:0.5;" x1="263" x2="3036" y1="1055.54" y2="1055.54"/>
  <g id="H-reference" style="fill:#27AAE1;stroke:none;" transform="matrix(1 0 0 1 339 1556)">
   <path d="M0.993654 0L3.63775 0L29.3281-67.1323L30.0303-67.1323L30.0303-70.459L28.1226-70.459ZM11.6885-24.4799L46.9815-24.4799L46.2315-26.7285L12.4385-26.7285ZM55.1196 0L57.7637 0L30.6382-70.459L29.4326-70.459L29.4326-67.1323Z"/>
  </g>
  <line id="Baseline-L" style="fill:none;stroke:#27AAE1;opacity:1;stroke-width:0.5;" x1="263" x2="3036" y1="1556" y2="1556"/>
  <line id="Capline-L" style="fill:none;stroke:#27AAE1;opacity:1;stroke-width:0.5;" x1="263" x2="3036" y1="1485.54" y2="1485.54"/>
  <line id="left-margin" style="fill:none;stroke:#00AEEF;stroke-width:0.5;opacity:1.0;" x1="1400.18" x2="1400.18" y1="1030.79" y2="1150.12"/>
  <line id="right-margin" style="fill:none;stroke:#00AEEF;stroke-width:0.5;opacity:1.0;" x1="1499.51" x2="1499.51" y1="1030.79" y2="1150.12"/>
 </g>
 <g id="Symbols">
  <g id="Black-L" transform="matrix(1 0 0 1 2860.9 1556)">
   <path d="M16.084 25.1095C16.084 30.607 20.5757 35.1 26.0745 35.1C31.5941 35.1 36.0662 30.607 36.0662 25.1095L36.0662-81.8147C36.0662-84.1172 37.4697-85.5415 39.749-85.5415L105.247-85.5415C107.526-85.5415 108.93-84.1172 108.93-81.8147L108.93 25.1095C108.93 30.607 113.402 35.1 118.922 35.1C124.42 35.1 128.912 30.607 128.912 25.1095L128.912-84.6763C128.912-97.6811 121.049-105.523 107.978-105.523L37.0183-105.523C23.9474-105.523 16.084-97.6811 16.084-84.6763ZM44.0175 28.5735C44.0175 30.4359 45.427 31.3289 47.4635 30.4775L66.1603 22.7525C67.8604 22.0907 68.633 21.1785 68.633 19.6584L68.633-66.6532C68.633-68.1732 67.842-69.0842 66.1859-69.7448L47.4635-77.4722C45.427-78.3236 44.0175-77.4306 44.0175-75.5474Z"/>
  </g>
  <g id="Heavy-L" transform="matrix(1 0 0 1 2566.34 1556)">
   <path d="M16.084 25.4408C16.084 30.2496 20.0198 34.191 24.8342 34.191C29.6787 34.191 33.59 30.2496 33.59 25.4408L33.59-83.501C33.59-85.7346 34.966-87.1408 37.1582-87.1408L103.545-87.1408C105.737-87.1408 107.113-85.7346 107.113-83.501L107.113 25.4408C107.113 30.2496 111.024 34.191 115.869 34.191C120.683 34.191 124.619 30.2496 124.619 25.4408L124.619-85.8344C124.619-97.4859 117.428-104.641 105.669-104.641L35.0339-104.641C23.2751-104.641 16.084-97.4859 16.084-85.8344ZM41.3415 28.3736C41.3415 30.0673 42.6512 30.8969 44.4731 30.1277L63.5044 22.1019C65.1785 21.4396 65.902 20.6145 65.902 19.0968L65.902-68.2635C65.902-69.7813 65.1595-70.6007 63.557-71.2574L44.4731-79.2944C42.6512-80.0636 41.3415-79.2341 41.3415-77.5102Z"/>
  </g>
  <g id="Bold-L" transform="matrix(1 0 0 1 2272.33 1556)">
   <path d="M16.084 25.8034C16.084 29.7667 19.3284 33.0243 23.3049 33.0243C27.3193 33.0243 30.539 29.7667 30.539 25.8034L30.539-85.5239C30.539-87.6805 31.8841-89.0636 33.9762-89.0636L101.328-89.0636C103.42-89.0636 104.765-87.6805 104.765-85.5239L104.765 25.8034C104.765 29.7667 107.984 33.0243 111.999 33.0243C115.975 33.0243 119.22 29.7667 119.22 25.8034L119.22-87.2638C119.22-97.2327 112.896-103.505 102.773-103.505L32.5304-103.505C22.4079-103.505 16.084-97.2327 16.084-87.2638ZM37.9626 28.0457C37.9626 29.5319 39.1418 30.2771 40.7024 29.6078L60.2604 21.1386C61.8813 20.4837 62.5285 19.7588 62.5285 18.2784L62.5285-70.2389C62.5285-71.7193 61.8698-72.431 60.3513-73.0727L40.7024-81.5683C39.1418-82.2376 37.9626-81.4924 37.9626-79.9682Z"/>
  </g>
  <g id="Semibold-L" transform="matrix(1 0 0 1 1977.48 1556)">
   <path d="M16.084 26.0534C16.084 29.4338 18.8517 32.22 22.2506 32.22C25.6928 32.22 28.4356 29.4338 28.4356 26.0534L28.4356-86.9185C28.4356-89.0219 29.7595-90.3891 31.7825-90.3891L99.799-90.3891C101.822-90.3891 103.146-89.0219 103.146-86.9185L103.146 26.0534C103.146 29.4338 105.889 32.22 109.331 32.22C112.73 32.22 115.498 29.4338 115.498 26.0534L115.498-88.2492C115.498-97.0581 109.772-102.722 100.777-102.722L30.8044-102.722C21.81-102.722 16.084-97.0581 16.084-88.2492ZM35.6331 27.8197C35.6331 29.1627 36.7225 29.8498 38.1028 29.2495L58.0239 20.4746C59.6083 19.8248 60.2028 19.1689 60.2028 17.7142L60.2028-71.6007C60.2028-73.0554 59.6019-73.6928 58.1412-74.3241L38.1028-83.136C36.7225-83.7363 35.6331-83.0492 35.6331-81.6628Z"/>
  </g>
  <g id="Medium-L" transform="matrix(1 0 0 1 1682.18 1556)">
   <path d="M16.084 26.243C16.084 29.1814 18.4902 31.6102 21.4511 31.6102C24.4595 31.6102 26.8408 29.1814 26.8408 26.243L26.8408-87.976C26.8408-90.039 28.1485-91.3942 30.1192-91.3942L98.64-91.3942C100.611-91.3942 101.918-90.039 101.918-87.976L101.918 26.243C101.918 29.1814 104.3 31.6102 107.308 31.6102C110.269 31.6102 112.675 29.1814 112.675 26.243L112.675-88.9964C112.675-96.9257 107.403-102.129 99.2634-102.129L29.4958-102.129C21.3567-102.129 16.084-96.9257 16.084-88.9964ZM33.8669 27.6483C33.8669 28.8829 34.8881 29.5259 36.1318 28.9778L56.3282 19.971C57.8847 19.3251 58.4393 18.7216 58.4393 17.2864L58.4393-72.6333C58.4393-74.0684 57.8822-74.6495 56.4655-75.273L36.1318-84.3246C34.8881-84.8727 33.8669-84.2297 33.8669-82.9477Z"/>
  </g>
  <g id="Regular-L" transform="matrix(1 0 0 1 1387.31 1556)">
   <path d="M16.084 26.4902C16.084 28.8522 18.0188 30.8147 20.4084 30.8147C22.8508 30.8147 24.7605 28.8522 24.7605 26.4902L24.7605-89.3552C24.7605-91.3657 26.0472-92.7052 27.9496-92.7052L97.1282-92.7052C99.0307-92.7052 100.317-91.3657 100.317-89.3552L100.317 26.4902C100.317 28.8522 102.227 30.8147 104.669 30.8147C107.059 30.8147 108.994 28.8522 108.994 26.4902L108.994-89.9709C108.994-96.7531 104.312-101.354 97.2891-101.354L27.7888-101.354C20.7654-101.354 16.084-96.7531 16.084-89.9709ZM31.563 27.4247C31.563 28.5178 32.4953 29.1033 33.5608 28.6233L54.1163 19.3142C55.6367 18.6734 56.1392 18.1381 56.1392 16.7284L56.1392-73.9801C56.1392-75.3898 55.6392-75.8975 54.2797-76.5106L33.5608-85.875C32.4953-86.355 31.563-85.7695 31.563-84.6236Z"/>
  </g>
  <g id="Light-L" transform="matrix(1 0 0 1 1092.72 1556)">
   <path d="M16.084 26.433C16.084 28.2606 17.5226 29.7459 19.3969 29.7459C21.3049 29.7459 22.7565 28.2606 22.7565 26.433L22.7565-90.3286C22.7565-92.3391 24.0433-93.6595 25.9266-93.6595L94.8953-93.6595C96.7786-93.6595 98.0653-92.3391 98.0653-90.3286L98.0653 26.433C98.0653 28.2606 99.5169 29.7459 101.425 29.7459C103.299 29.7459 104.738 28.2606 104.738 26.433L104.738-90.9252C104.738-96.505 100.877-100.285 95.0561-100.285L25.7658-100.285C19.9447-100.285 16.084-96.505 16.084-90.9252ZM28.8148 26.6804C28.8148 27.6399 29.6135 28.13 30.5262 27.7072L52.1696 17.6347C53.5182 17.0512 53.868 16.535 53.868 15.3734L53.868-75.2207C53.868-76.3823 53.578-76.8517 52.3903-77.3885L30.5262-87.5545C29.6135-87.9772 28.8148-87.4872 28.8148-86.494Z"/>
  </g>
  <g id="Thin-L" transform="matrix(1 0 0 1 798.826 1556)">
   <path d="M16.084 26.3573C16.084 27.4781 16.8663 28.3324 18.0591 28.3324C19.2603 28.3324 20.1062 27.4781 20.1062 26.3573L20.1062-91.6159C20.1062-93.6264 21.3929-94.9216 23.251-94.9216L91.942-94.9216C93.8001-94.9216 95.0868-93.6264 95.0868-91.6159L95.0868 26.3573C95.0868 27.4781 95.9326 28.3324 97.1339 28.3324C98.3267 28.3324 99.1089 27.4781 99.1089 26.3573L99.1089-92.1873C99.1089-96.1768 96.3336-98.8718 92.1028-98.8718L23.0901-98.8718C18.8593-98.8718 16.084-96.1768 16.084-92.1873ZM25.1799 25.6959C25.1799 26.4788 25.8019 26.8426 26.5128 26.4956L49.595 15.4135C50.7163 14.9056 50.8643 14.4147 50.8643 13.5812L50.8643-76.8614C50.8643-77.6948 50.8519-78.1138 49.8913-78.5497L26.5128-89.7758C25.8019-90.1228 25.1799-89.7589 25.1799-88.9677Z"/>
  </g>
  <g id="Ultralight-L" transform="matrix(1 0 0 1 503.556 1556)">
   <path d="M16.084 26.3185C16.084 27.0773 16.5301 27.6084 17.3739 27.6084C18.2131 27.6084 18.7486 27.0773 18.7486 26.3185L18.7486-92.2753C18.7486-94.2858 20.0354-95.568 21.8805-95.568L90.4293-95.568C92.2745-95.568 93.5612-94.2858 93.5612-92.2753L93.5612 26.3185C93.5612 27.0773 94.0967 27.6084 94.936 27.6084C95.7797 27.6084 96.2258 27.0773 96.2258 26.3185L96.2258-92.8337C96.2258-96.0088 94.0064-98.1478 90.5901-98.1478L21.7197-98.1478C18.3034-98.1478 16.084-96.0088 16.084-92.8337ZM23.3182 25.1917C23.3182 25.884 23.8497 26.1833 24.4571 25.8751L48.2762 14.2757C49.2813 13.8067 49.3257 13.3287 49.3257 12.6633L49.3257-77.7018C49.3257-78.3671 49.4556-78.7602 48.6114-79.1444L24.4571-90.9135C23.8497-91.2217 23.3182-90.9225 23.3182-90.2347Z"/>
  </g>
  <g id="Black-M" transform="matrix(1 0 0 1 2875.68 1126)">
   <path d="M12.4609 11.2251C12.4609 16.0039 16.3514 19.8941 21.1299 19.8941C25.9139 19.8941 29.7986 16.0039 29.7986 11.2251L29.7986-70.0036C29.7986-71.8467 30.9097-72.9632 32.7478-72.9632L82.6997-72.9632C84.5378-72.9632 85.6489-71.8467 85.6489-70.0036L85.6489 11.2251C85.6489 16.0039 89.5336 19.8941 94.3176 19.8941C99.0961 19.8941 102.987 16.0039 102.987 11.2251L102.987-72.6719C102.987-83.7476 96.4278-90.3012 85.3365-90.3012L30.111-90.3012C19.0197-90.3012 12.4609-83.7476 12.4609-72.6719ZM36.0297 14.2722C36.0297 15.842 37.1894 16.5755 38.9308 15.853L53.276 10.0231C54.5922 9.51862 55.2123 8.73963 55.2123 7.59363L55.2123-58.3588C55.2123-59.5048 54.5861-60.2841 53.2804-60.7889L38.9308-66.6182C37.1894-67.3407 36.0297-66.6072 36.0297-65.0319Z"/>
  </g>
  <g id="Heavy-M" transform="matrix(1 0 0 1 2580.87 1126)">
   <path d="M12.4609 11.5543C12.4609 15.709 15.8538 19.1041 20.0107 19.1041C24.1841 19.1041 27.5628 15.709 27.5628 11.5543L27.5628-71.5623C27.5628-73.338 28.6469-74.4385 30.4017-74.4385L81.2417-74.4385C82.9964-74.4385 84.0806-73.338 84.0806-71.5623L84.0806 11.5543C84.0806 15.709 87.4593 19.1041 91.6326 19.1041C95.7896 19.1041 99.1824 15.709 99.1824 11.5543L99.1824-73.7161C99.1824-83.5796 93.2052-89.5381 83.2856-89.5381L28.3577-89.5381C18.4382-89.5381 12.4609-83.5796 12.4609-73.7161ZM33.6672 14.1455C33.6672 15.5627 34.7417 16.243 36.2875 15.5955L50.8593 9.5421C52.1659 9.0318 52.752 8.33621 52.752 7.16955L52.752-59.8186C52.752-60.9853 52.154-61.6786 50.8848-62.1866L36.2875-68.2446C34.7417-68.892 33.6672-68.2118 33.6672-66.7782Z"/>
  </g>
  <g id="Bold-M" transform="matrix(1 0 0 1 2286.28 1126)">
   <path d="M12.4609 11.9226C12.4609 15.3792 15.2971 18.2204 18.7588 18.2204C22.2492 18.2204 25.0618 15.3792 25.0618 11.9226L25.0618-73.3059C25.0618-75.0063 26.1157-76.0889 27.7772-76.0889L79.6107-76.0889C81.2722-76.0889 82.3262-75.0063 82.3262-73.3059L82.3262 11.9226C82.3262 15.3792 85.1388 18.2204 88.6291 18.2204C92.0909 18.2204 94.927 15.3792 94.927 11.9226L94.927-74.8841C94.927-83.3917 89.6003-88.6846 80.9914-88.6846L26.3965-88.6846C17.7876-88.6846 12.4609-83.3917 12.4609-74.8841ZM31.0245 14.0038C31.0245 15.2503 32.0036 15.871 33.3305 15.3075L48.1558 9.004C49.4517 8.48721 49.9999 7.88492 49.9999 6.69515L49.9999-61.4516C49.9999-62.6413 49.4334-63.2385 48.2049-63.7502L33.3305-70.0639C32.0036-70.6274 31.0245-70.0067 31.0245-68.7316Z"/>
  </g>
  <g id="Semibold-M" transform="matrix(1 0 0 1 1991.04 1126)">
   <path d="M12.4609 12.1764C12.4609 15.1518 14.9133 17.6112 17.8957 17.6112C20.9152 17.6112 23.3376 15.1518 23.3376 12.1764L23.3376-74.508C23.3376-76.1564 24.3708-77.2266 25.9679-77.2266L78.4863-77.2266C80.0835-77.2266 81.1167-76.1564 81.1167-74.508L81.1167 12.1764C81.1167 15.1518 83.5391 17.6112 86.5585 17.6112C89.541 17.6112 91.9933 15.1518 91.9933 12.1764L91.9933-75.6893C91.9933-83.2621 87.1151-88.0962 79.4098-88.0962L25.0444-88.0962C17.3391-88.0962 12.4609-83.2621 12.4609-75.6893ZM29.2026 13.9062C29.2026 15.0349 30.1159 15.6145 31.292 15.1089L46.292 8.63305C47.5806 8.11178 48.1026 7.57381 48.1026 6.36811L48.1026-62.5773C48.1026-63.783 47.5578-64.3139 46.3575-64.8281L31.292-71.3182C30.1159-71.8238 29.2026-71.2441 29.2026-70.0783Z"/>
  </g>
  <g id="Medium-M" transform="matrix(1 0 0 1 1695.44 1126)">
   <path d="M12.4609 12.3689C12.4609 14.9794 14.6222 17.1493 17.2413 17.1493C19.9037 17.1493 22.0302 14.9794 22.0302 12.3689L22.0302-75.4195C22.0302-77.0285 23.0476-78.0893 24.596-78.0893L77.6338-78.0893C79.1822-78.0893 80.1996-77.0285 80.1996-75.4195L80.1996 12.3689C80.1996 14.9794 82.3261 17.1493 84.9885 17.1493C87.6076 17.1493 89.7689 14.9794 89.7689 12.3689L89.7689-76.2998C89.7689-83.1639 85.2308-87.65 78.2106-87.65L24.0192-87.65C16.999-87.65 12.4609-83.1639 12.4609-76.2998ZM27.8212 13.8321C27.8212 14.8715 28.6846 15.4201 29.7463 14.9584L44.8788 8.35177C46.1618 7.82711 46.664 7.33791 46.664 6.12013L46.664-63.4309C46.664-64.6487 46.1356-65.1293 44.9566-65.6454L29.7463-72.2692C28.6846-72.7309 27.8212-72.1823 27.8212-71.0995Z"/>
  </g>
  <g id="Regular-M" transform="matrix(1 0 0 1 1400.18 1126)">
   <path d="M12.4609 12.62C12.4609 14.7545 14.2427 16.5467 16.3877 16.5467C18.5844 16.5467 20.325 14.7545 20.325 12.62L20.325-76.6083C20.325-78.1659 21.3218-79.2146 22.8066-79.2146L76.5218-79.2146C78.0065-79.2146 79.0034-78.1659 79.0034-76.6083L79.0034 12.62C79.0034 14.7545 80.7439 16.5467 82.9407 16.5467C85.0857 16.5467 86.8674 14.7545 86.8674 12.62L86.8674-77.0962C86.8674-83.0358 82.7729-87.068 76.6464-87.068L22.682-87.068C16.5555-87.068 12.4609-83.0358 12.4609-77.0962ZM26.0193 13.7355C26.0193 14.6585 26.8177 15.1665 27.7302 14.762L43.0355 7.98489C44.3113 7.4558 44.7876 7.03022 44.7876 5.79668L44.7876-64.5443C44.7876-65.7779 44.2806-66.1929 43.1295-66.7114L27.7302-73.5096C26.8177-73.9141 26.0193-73.4061 26.0193-72.4314Z"/>
  </g>
  <g id="Light-M" transform="matrix(1 0 0 1 1105.38 1126)">
   <path d="M12.4609 12.5687C12.4609 14.224 13.7978 15.5885 15.4808 15.5885C17.1984 15.5885 18.5283 14.224 18.5283 12.5687L18.5283-77.481C18.5283-79.0386 19.5252-80.0701 20.9928-80.0701L74.5198-80.0701C75.9874-80.0701 76.9843-79.0386 76.9843-77.481L76.9843 12.5687C76.9843 14.224 78.3142 15.5885 80.0318 15.5885C81.7148 15.5885 83.0517 14.224 83.0517 12.5687L83.0517-77.9518C83.0517-82.8133 79.6929-86.1098 74.6444-86.1098L20.8682-86.1098C15.8197-86.1098 12.4609-82.8133 12.4609-77.9518ZM23.5553 13.0682C23.5553 13.8714 24.234 14.2938 25.0096 13.9407L41.2902 6.47913C42.4119 6.00137 42.7514 5.5929 42.7514 4.5818L42.7514-65.6565C42.7514-66.6676 42.4326-67.0484 41.4355-67.4985L25.0096-75.0154C24.234-75.3686 23.5553-74.9461 23.5553-74.1082Z"/>
  </g>
  <g id="Thin-M" transform="matrix(1 0 0 1 811.189 1126)">
   <path d="M12.4609 12.5008C12.4609 13.5225 13.2094 14.3212 14.2814 14.3212C15.3654 14.3212 16.1521 13.5225 16.1521 12.5008L16.1521-78.6351C16.1521-80.1928 17.149-81.2016 18.594-81.2016L71.872-81.2016C73.317-81.2016 74.3139-80.1928 74.3139-78.6351L74.3139 12.5008C74.3139 13.5225 75.1006 14.3212 76.1846 14.3212C77.2566 14.3212 78.0051 13.5225 78.0051 12.5008L78.0051-79.0833C78.0051-82.5191 75.6194-84.8425 71.9966-84.8425L18.4694-84.8425C14.8466-84.8425 12.4609-82.5191 12.4609-79.0833ZM20.2965 12.1856C20.2965 12.8304 20.8168 13.1397 21.4113 12.8544L38.9819 4.48763C39.8999 4.07777 40.0583 3.69193 40.0583 2.97503L40.0583-67.1275C40.0583-67.8444 39.9885-68.18 39.1951-68.5395L21.4113-77.0069C20.8168-77.2922 20.2965-76.9829 20.2965-76.326Z"/>
  </g>
  <g id="Ultralight-M" transform="matrix(1 0 0 1 515.771 1126)">
   <path d="M12.4609 12.466C12.4609 13.1631 12.908 13.6721 13.667 13.6721C14.4265 13.6721 14.935 13.1631 14.935 12.466L14.935-79.2263C14.935-80.7839 15.9319-81.7812 17.3653-81.7812L70.5158-81.7812C71.9493-81.7812 72.9461-80.7839 72.9461-79.2263L72.9461 12.466C72.9461 13.1631 73.4547 13.6721 74.2141 13.6721C74.9731 13.6721 75.4202 13.1631 75.4202 12.466L75.4202-79.6628C75.4202-82.3685 73.533-84.1934 70.6404-84.1934L17.2407-84.1934C14.3482-84.1934 12.4609-82.3685 12.4609-79.6628ZM18.6274 11.7335C18.6274 12.2972 19.0665 12.5485 19.5683 12.298L37.7996 3.4676C38.6133 3.09251 38.679 2.71826 38.679 2.15205L38.679-67.8809C38.679-68.4472 38.7367-68.7595 38.0475-69.0727L19.5683-78.0269C19.0665-78.2774 18.6274-78.0261 18.6274-77.462Z"/>
  </g>
  <g id="Black-S" transform="matrix(1 0 0 1 2887.7 696)">
   <path d="M9.76562 1.07422C9.76562 4.98047 12.9395 8.1543 16.8457 8.1543C20.752 8.1543 23.9258 4.98047 23.9258 1.07422L23.9258-62.0605C23.9258-63.5254 24.8047-64.4043 26.2695-64.4043L65.1367-64.4043C66.6016-64.4043 67.4805-63.5254 67.4805-62.0605L67.4805 1.07422C67.4805 4.98047 70.6543 8.1543 74.5605 8.1543C78.4668 8.1543 81.6406 4.98047 81.6406 1.07422L81.6406-64.3066C81.6406-73.291 76.3672-78.5645 67.3828-78.5645L24.0234-78.5645C15.0391-78.5645 9.76562-73.291 9.76562-64.3066ZM28.8086 3.56445C28.8086 4.83398 29.7363 5.41992 31.1523 4.83398L42.3828 0.292969C43.4082-0.0976562 43.8965-0.732422 43.8965-1.61133L43.8965-52.9785C43.8965-53.8574 43.4082-54.4922 42.3828-54.8828L31.1523-59.4238C29.7363-60.0098 28.8086-59.4238 28.8086-58.1543Z"/>
  </g>
  <g id="Heavy-S" transform="matrix(1 0 0 1 2592.37 696)">
   <path d="M9.76562 1.36233C9.76562 4.79608 12.5707 7.60112 16.0044 7.60112C19.4497 7.60112 22.2432 4.79608 22.2432 1.36233L22.2432-63.2821C22.2432-64.6894 23.0991-65.5567 24.4948-65.5567L64.1456-65.5567C65.5413-65.5567 66.3972-64.6894 66.3972-63.2821L66.3972 1.36233C66.3972 4.79608 69.1907 7.60112 72.636 7.60112C76.0697 7.60112 78.8748 4.79608 78.8748 1.36233L78.8748-65.0903C78.8748-73.1758 74.0047-78.0343 65.8846-78.0343L22.7557-78.0343C14.6357-78.0343 9.76562-73.1758 9.76562-65.0903ZM27.103 3.5414C27.103 4.69569 27.9731 5.24705 29.2393 4.71874L40.5389 0.0740039C41.5758-0.328146 42.0526-0.893764 42.0526-1.81877L42.0526-54.0849C42.0526-55.0099 41.5643-55.5755 40.5504-55.9776L29.2393-60.6224C27.9731-61.1507 27.103-60.5993 27.103-59.4335Z"/>
  </g>
  <g id="Bold-S" transform="matrix(1 0 0 1 2297.2 696)">
   <path d="M9.76562 1.68457C9.76562 4.58984 12.1582 6.98242 15.0635 6.98242C17.9932 6.98242 20.3613 4.58984 20.3613 1.68457L20.3613-64.6484C20.3613-65.9912 21.1914-66.8457 22.5098-66.8457L63.0371-66.8457C64.3555-66.8457 65.1855-65.9912 65.1855-64.6484L65.1855 1.68457C65.1855 4.58984 67.5537 6.98242 70.4834 6.98242C73.3887 6.98242 75.7812 4.58984 75.7812 1.68457L75.7812-65.9668C75.7812-73.0469 71.3623-77.4414 64.209-77.4414L21.3379-77.4414C14.1846-77.4414 9.76562-73.0469 9.76562-65.9668ZM25.1953 3.51562C25.1953 4.54102 26.001 5.05371 27.0996 4.58984L38.4766-0.170898C39.5264-0.585938 39.9902-1.07422 39.9902-2.05078L39.9902-55.3223C39.9902-56.2988 39.502-56.7871 38.501-57.2021L27.0996-61.9629C26.001-62.4268 25.1953-61.9141 25.1953-60.8643Z"/>
  </g>
  <g id="Semibold-S" transform="matrix(1 0 0 1 2001.56 696)">
   <path d="M9.76562 1.90674C9.76562 4.44766 11.8738 6.55586 14.4147 6.55586C16.989 6.55586 19.0639 4.44766 19.0639 1.90674L19.0639-65.5904C19.0639-66.8888 19.8762-67.7344 21.1412-67.7344L62.2729-67.7344C63.5379-67.7344 64.3502-66.8888 64.3502-65.5904L64.3502 1.90674C64.3502 4.44766 66.4251 6.55586 68.9993 6.55586C71.5402 6.55586 73.6484 4.44766 73.6484 1.90674L73.6484-66.5711C73.6484-72.958 69.5405-77.0326 63.0537-77.0326L20.3604-77.0326C13.8735-77.0326 9.76562-72.958 9.76562-66.5711ZM23.8801 3.49785C23.8801 4.43438 24.6413 4.92041 25.6244 4.50098L37.0547-0.339746C38.1134-0.763672 38.5684-1.19863 38.5684-2.21074L38.5684-56.1754C38.5684-57.1875 38.0801-57.6225 37.088-58.0464L25.6244-62.8871C24.6413-63.3065 23.8801-62.8205 23.8801-61.8507Z"/>
  </g>
  <g id="Medium-S" transform="matrix(1 0 0 1 1705.66 696)">
   <path d="M9.76562 2.0752C9.76562 4.33984 11.6582 6.23242 13.9229 6.23242C16.2275 6.23242 18.0801 4.33984 18.0801 2.0752L18.0801-66.3047C18.0801-67.5693 18.8789-68.4082 20.1035-68.4082L61.6934-68.4082C62.918-68.4082 63.7168-67.5693 63.7168-66.3047L63.7168 2.0752C63.7168 4.33984 65.5693 6.23242 67.874 6.23242C70.1387 6.23242 72.0312 4.33984 72.0312 2.0752L72.0312-67.0293C72.0312-72.8906 68.1592-76.7227 62.1777-76.7227L19.6191-76.7227C13.6377-76.7227 9.76562-72.8906 9.76562-67.0293ZM22.8828 3.48438C22.8828 4.35352 23.6104 4.81934 24.5059 4.43359L35.9766-0.467773C37.042-0.898438 37.4902-1.29297 37.4902-2.33203L37.4902-56.8223C37.4902-57.8613 37.002-58.2559 36.0166-58.6865L24.5059-63.5879C23.6104-63.9736 22.8828-63.5078 22.8828-62.5986Z"/>
  </g>
  <g id="Regular-S" transform="matrix(1 0 0 1 1410 696)">
   <path d="M9.76562 2.29492C9.76562 4.19922 11.377 5.81055 13.2812 5.81055C15.2344 5.81055 16.7969 4.19922 16.7969 2.29492L16.7969-67.2363C16.7969-68.457 17.5781-69.2871 18.75-69.2871L60.9375-69.2871C62.1094-69.2871 62.8906-68.457 62.8906-67.2363L62.8906 2.29492C62.8906 4.19922 64.4531 5.81055 66.4062 5.81055C68.3105 5.81055 69.9219 4.19922 69.9219 2.29492L69.9219-67.627C69.9219-72.8027 66.3574-76.3184 61.0352-76.3184L18.6523-76.3184C13.3301-76.3184 9.76562-72.8027 9.76562-67.627ZM21.582 3.4668C21.582 4.24805 22.2656 4.6875 23.0469 4.3457L34.5703-0.634766C35.6445-1.07422 36.084-1.41602 36.084-2.49023L36.084-57.666C36.084-58.7402 35.5957-59.082 34.6191-59.5215L23.0469-64.502C22.2656-64.8438 21.582-64.4043 21.582-63.5742Z"/>
  </g>
  <g id="Light-S" transform="matrix(1 0 0 1 1114.98 696)">
   <path d="M9.76562 2.24951C9.76562 3.72998 10.9834 4.9629 12.479 4.9629C14.0083 4.9629 15.2075 3.72998 15.2075 2.24951L15.2075-68.0083C15.2075-69.229 15.9888-70.0439 17.1455-70.0439L59.1665-70.0439C60.3233-70.0439 61.1045-69.229 61.1045-68.0083L61.1045 2.24951C61.1045 3.72998 62.3037 4.9629 63.833 4.9629C65.3286 4.9629 66.5464 3.72998 66.5464 2.24951L66.5464-68.3838C66.5464-72.606 63.6328-75.4707 59.2642-75.4707L17.0479-75.4707C12.6792-75.4707 9.76562-72.606 9.76562-68.3838ZM19.4024 2.87647C19.4024 3.55176 19.98 3.91553 20.6402 3.61915L33.0264-1.96679C33.9644-2.36083 34.2827-2.68749 34.2827-3.56493L34.2827-58.6499C34.2827-59.5273 33.961-59.8389 33.1206-60.2178L20.6402-65.834C19.98-66.1304 19.4024-65.7666 19.4024-65.0576Z"/>
  </g>
  <g id="Thin-S" transform="matrix(1 0 0 1 820.498 696)">
   <path d="M9.76562 2.18945C9.76562 3.10938 10.4629 3.84181 11.418 3.84181C12.3867 3.84181 13.1055 3.10938 13.1055 2.18945L13.1055-69.0293C13.1055-70.25 13.8867-71.0449 15.0235-71.0449L56.8243-71.0449C57.961-71.0449 58.7422-70.25 58.7422-69.0293L58.7422 2.18945C58.7422 3.10938 59.461 3.84181 60.4297 3.84181C61.3848 3.84181 62.0821 3.10938 62.0821 2.18945L62.0821-69.3848C62.0821-72.3457 60.0293-74.3496 56.9219-74.3496L14.9258-74.3496C11.8184-74.3496 9.76562-72.3457 9.76562-69.3848ZM16.5196 2.09571C16.5196 2.63087 16.9571 2.89455 17.4571 2.65822L30.9844-3.72849C31.7422-4.06248 31.9004-4.36912 31.9004-4.98631L31.9004-59.9512C31.9004-60.5683 31.7989-60.8398 31.1387-61.1387L17.4571-67.5957C16.9571-67.832 16.5196-67.5683 16.5196-67.0195Z"/>
  </g>
  <g id="Ultralight-S" transform="matrix(1 0 0 1 524.931 696)">
   <path d="M9.76562 2.15869C9.76562 2.79151 10.1963 3.2676 10.8745 3.2676C11.5562 3.2676 12.0288 2.79151 12.0288 2.15869L12.0288-69.5522C12.0288-70.7729 12.8101-71.5576 13.9366-71.5576L55.6246-71.5576C56.751-71.5576 57.5323-70.7729 57.5323-69.5522L57.5323 2.15869C57.5323 2.79151 58.0049 3.2676 58.6866 3.2676C59.3648 3.2676 59.7955 2.79151 59.7955 2.15869L59.7955-69.8974C59.7955-72.2124 58.1837-73.7754 55.7222-73.7754L13.8389-73.7754C11.3775-73.7754 9.76562-72.2124 9.76562-69.8974ZM15.043 1.69581C15.043 2.1592 15.4087 2.3716 15.8267 2.16603L29.9385-4.63083C30.604-4.93405 30.6802-5.23044 30.6802-5.71433L30.6802-60.6177C30.6802-61.1015 30.6914-61.3525 30.1236-61.6103L15.8267-68.498C15.4087-68.7036 15.043-68.4912 15.043-68.0244Z"/>
  </g>
 </g>
</svg>
